<?xml version="1.0" encoding="UTF-8"?>
<svg width="343px" height="250px" viewBox="0 0 343 250" version="1.1" xmlns="http://www.w3.org/2000/svg" xmlns:xlink="http://www.w3.org/1999/xlink">
    <!-- Generator: Sketch 61.2 (89653) - https://sketch.com -->
    <title>cloud2</title>
    <desc>Created with Sketch.</desc>
    <g id="Page-1" stroke="none" stroke-width="1" fill="none" fill-rule="evenodd">
        <g id="Desktop-HD" transform="translate(-196.000000, -388.000000)" fill="#E0ECF1">
            <g id="cloud2" transform="translate(196.000000, 388.000000)">
                <path d="M121.476134,47 L23.523866,47 C10.5322867,47 0,36.4781953 0,23.5004545 L0,23.4995455 C0,10.5208958 10.5322867,0 23.523866,0 L121.476134,0 C134.467713,0 145,10.5208958 145,23.4995455 L145,23.5004545 C145,36.4781953 134.467713,47 121.476134,47" id="Fill-7"></path>
                <path d="M319.978311,112 L156.852365,112 C144.189949,112 133.829865,122.350263 133.829865,134.999865 C133.829865,147.650277 144.189949,157.99973 156.852365,157.99973 L186.451216,157.99973 C199.113632,157.99973 209.473716,168.350803 209.473716,181.000405 C209.473716,193.650816 199.113632,204.00027 186.451216,204.00027 L95.0216893,204.00027 C82.3600843,204.00027 72,214.350533 72,227.000135 C72,239.650546 82.3600843,250 95.0216893,250 L258.148446,250 C270.810051,250 281.170135,239.650546 281.170135,227.000135 C281.170135,214.350533 270.810051,204.00027 258.148446,204.00027 L261.437027,204.00027 C248.774612,204.00027 238.415338,193.650816 238.415338,181.000405 C238.415338,168.350803 248.774612,157.99973 261.437027,157.99973 L319.978311,157.99973 C332.640726,157.99973 343,147.650277 343,134.999865 C343,122.350263 332.640726,112 319.978311,112" id="Fill-9"></path>
            </g>
        </g>
    </g>
</svg>