<?xml version="1.0" encoding="UTF-8"?>
<svg width="339px" height="131px" viewBox="0 0 339 131" version="1.1" xmlns="http://www.w3.org/2000/svg" xmlns:xlink="http://www.w3.org/1999/xlink">
    <g id="Page-1" stroke="none" stroke-width="1" fill="none" fill-rule="evenodd">
        <g id="Desktop-HD" transform="translate(-927.000000, -605.000000)" fill="#E0ECF1">
            <g id="cloud1" transform="translate(927.000000, 605.000000)">
                <path d="M223.181025,87.3333333 L110.966603,87.3333333 C98.9661244,87.3333333 89.1467781,77.5077167 89.1467781,65.4995747 C89.1467781,53.4914328 98.9661244,43.6666667 110.966603,43.6666667 L142.761327,43.6666667 C154.761806,43.6666667 164.580302,33.84105 164.580302,21.8329081 C164.580302,9.8247661 154.761806,0 142.761327,0 L21.8189751,0 C9.81849628,0 0,9.8247661 0,21.8329081 C0,33.84105 9.81849628,43.6666667 21.8189751,43.6666667 L39.8978944,43.6666667 C51.8983732,43.6666667 61.7177195,53.4914328 61.7177195,65.4995747 C61.7177195,77.5077167 51.8983732,87.3333333 39.8978944,87.3333333 L27.4299086,87.3333333 C15.4294299,87.3333333 5.61008358,97.1580994 5.61008358,109.166241 C5.61008358,121.175234 15.4294299,131 27.4299086,131 L223.181025,131 C235.181504,131 245,121.175234 245,109.166241 C245,97.1580994 235.181504,87.3333333 223.181025,87.3333333" id="Fill-11"></path>
                <rect id="Rectangle" x="263" y="88" width="76" height="43" rx="21.5"></rect>
            </g>
        </g>
    </g>
</svg>