<?xml version="1.0" encoding="UTF-8"?>
<svg width="307px" height="200px" viewBox="0 0 307 200" version="1.1" xmlns="http://www.w3.org/2000/svg" xmlns:xlink="http://www.w3.org/1999/xlink">
    <!-- Generator: Sketch 61.2 (89653) - https://sketch.com -->
    <title>cloud3</title>
    <desc>Created with Sketch.</desc>
    <defs>
        <polygon id="path-1" points="0 0 307 0 307 200 0 200"></polygon>
    </defs>
    <g id="Page-1" stroke="none" stroke-width="1" fill="none" fill-rule="evenodd">
        <g id="Desktop-HD" transform="translate(-1039.000000, -132.000000)">
            <g id="cloud3" transform="translate(1039.000000, 132.000000)">
                <mask id="mask-2" fill="white">
                    <use xlink:href="#path-1"></use>
                </mask>
                <g id="Clip-2"></g>
                <path d="M287.446377,160.805478 L141.454814,160.805478 C130.700535,160.805478 121.902045,151.98716 121.902045,141.208645 C121.902045,130.430131 130.700535,121.611813 141.454814,121.611813 L164.502383,121.611813 C175.691377,121.611813 184.846862,112.435694 184.846862,101.220629 C184.846862,91.8698909 178.479871,83.9417933 169.877814,81.5630216 L174.76985,81.5630216 C163.580856,81.5630216 154.42537,72.3869035 154.42537,61.1726942 C154.42537,49.956773 163.580856,40.7815108 174.76985,40.7815108 L250.107027,40.7815108 C261.296875,40.7815108 270.452361,31.6062487 270.452361,20.3903274 C270.452361,9.17611813 261.296875,0 250.107027,0 L71.8842267,0 C60.6935245,0 51.538893,9.17611813 51.538893,20.3903274 C51.538893,31.6062487 60.6935245,40.7815108 71.8842267,40.7815108 L108.503607,40.7815108 C119.694309,40.7815108 128.84894,49.956773 128.84894,61.1726942 C128.84894,70.5234325 122.481949,78.4515301 113.879892,80.8303017 L20.3444797,80.8303017 C9.15463152,80.8303017 0,90.0064199 0,101.220629 C0,112.435694 9.15463152,121.611813 20.3444797,121.611813 L77.7678218,121.611813 C88.5221011,121.611813 97.3205911,130.430131 97.3205911,141.208645 C97.3205911,151.98716 88.5221011,160.805478 77.7678218,160.805478 L78.0291631,160.805478 C67.2748838,160.805478 58.4755398,169.624652 58.4755398,180.403167 C58.4755398,191.180826 67.2748838,200 78.0291631,200 L287.446377,200 C298.200656,200 307,191.180826 307,180.403167 C307,169.624652 298.200656,160.805478 287.446377,160.805478" id="Fill-1" fill="#E0ECF1" mask="url(#mask-2)"></path>
            </g>
        </g>
    </g>
</svg>